<svg width="53.601" height="70.8" viewBox="0 0 53.601 70.8" xmlns="http://www.w3.org/2000/svg"><g id="svgGroup" stroke-linecap="round" fill-rule="evenodd" font-size="9pt" stroke="#000" stroke-width="0.25mm" fill="black" style="stroke:#000;stroke-width:0.25mm;fill:black"><path d="M 0 2 L 0 0 Q 1.879 0.089 4.797 0.179 A 569.544 569.544 0 0 0 5.5 0.2 Q 8.9 0.3 12.2 0.3 Q 16.9 0.3 21.2 0.2 A 703.938 703.938 0 0 1 23.194 0.156 Q 25.659 0.106 27 0.101 A 76.038 76.038 0 0 1 27.3 0.1 Q 33.878 0.1 38.415 1.827 A 16.391 16.391 0 0 1 43.1 4.5 A 14.496 14.496 0 0 1 47.157 9.702 A 14.656 14.656 0 0 1 48.4 15.8 Q 48.4 19.3 46.95 22.65 A 14.845 14.845 0 0 1 44.395 26.603 A 19.666 19.666 0 0 1 42.15 28.75 Q 39.389 31.017 35.099 32.57 A 37.999 37.999 0 0 1 33.2 33.2 L 33.2 33.4 A 47.772 47.772 0 0 1 38.013 34.245 Q 42.56 35.302 45.55 37.15 Q 49.534 39.612 51.394 42.835 A 12.267 12.267 0 0 1 51.8 43.6 Q 53.6 47.3 53.6 51.4 A 19.319 19.319 0 0 1 52.723 57.308 A 16.907 16.907 0 0 1 50.75 61.45 A 18.076 18.076 0 0 1 45.336 66.747 A 23.226 23.226 0 0 1 42.5 68.3 A 25.901 25.901 0 0 1 36.221 70.241 Q 33.433 70.748 30.261 70.795 A 44.171 44.171 0 0 1 29.6 70.8 Q 27.4 70.8 23 70.65 A 228.602 228.602 0 0 0 19.447 70.559 Q 17.861 70.529 16.099 70.515 A 445.661 445.661 0 0 0 12.4 70.5 Q 8.9 70.5 5.5 70.55 Q 2.459 70.595 0.457 70.759 A 35.883 35.883 0 0 0 0 70.8 L 0 68.8 Q 2.947 68.627 4.654 68.153 A 8.723 8.723 0 0 0 5.15 68 Q 6.9 67.4 7.5 65.6 Q 8.006 64.082 8.085 61.283 A 38.321 38.321 0 0 0 8.1 60.2 L 8.1 10.6 Q 8.1 6.9 7.5 5.15 Q 6.9 3.4 5.15 2.75 A 8.883 8.883 0 0 0 3.904 2.399 Q 2.344 2.069 0 2 Z M 17.4 10.6 L 17.4 60.2 Q 17.4 63.233 17.851 64.99 A 7.544 7.544 0 0 0 18 65.5 A 4.354 4.354 0 0 0 18.591 66.681 A 3.419 3.419 0 0 0 20.2 67.9 Q 21.8 68.5 24.9 68.5 A 33.468 33.468 0 0 0 29.989 68.14 Q 32.644 67.731 34.751 66.855 A 13.082 13.082 0 0 0 39.15 63.95 Q 43.174 59.835 43.559 52.573 A 29.703 29.703 0 0 0 43.6 51 A 22.988 22.988 0 0 0 43.153 46.324 Q 42.238 41.922 39.45 39.1 Q 35.3 34.9 25.8 34.9 L 15.5 34.9 L 15.5 34.05 L 15.5 33.2 L 24.1 33.2 Q 30 33.2 33.2 30.95 Q 36.4 28.7 37.6 24.95 A 25.596 25.596 0 0 0 38.758 18.493 A 29.757 29.757 0 0 0 38.8 16.9 Q 38.8 12.113 37.44 8.853 A 11.393 11.393 0 0 0 35.55 5.75 A 9.717 9.717 0 0 0 31.569 3.058 Q 29.959 2.446 27.948 2.188 A 24.772 24.772 0 0 0 24.8 2 A 19.669 19.669 0 0 0 22.941 2.081 Q 20.951 2.271 19.794 2.903 A 3.344 3.344 0 0 0 18.8 3.7 Q 17.401 5.398 17.4 10.59 A 38.214 38.214 0 0 0 17.4 10.6 Z" vector-effect="non-scaling-stroke"/></g></svg>